<mxfile host="app.diagrams.net" modified="2020-10-24T12:25:42.197Z" agent="5.0 (Windows)" etag="dqNE6p0ecn4scg-MQTdG" version="13.8.1" type="github">
  <diagram id="Lh3K1O5_1CLh0dVQpgni" name="Page-1">
    <mxGraphModel dx="981" dy="546" grid="1" gridSize="10" guides="1" tooltips="1" connect="1" arrows="1" fold="1" page="1" pageScale="1" pageWidth="1169" pageHeight="826" math="0" shadow="0">
      <root>
        <mxCell id="0" />
        <mxCell id="1" parent="0" />
        <mxCell id="Dyl_JNQM9-ZqR2bKSNgT-2" value="" style="html=1;labelBackgroundColor=#66B2FF;fillColor=#dae8fc;strokeColor=#6c8ebf;" vertex="1" parent="1">
          <mxGeometry x="310" y="230" width="190" height="318" as="geometry" />
        </mxCell>
        <mxCell id="Dyl_JNQM9-ZqR2bKSNgT-32" style="edgeStyle=none;rounded=1;orthogonalLoop=1;jettySize=auto;html=1;entryX=0;entryY=0.5;entryDx=0;entryDy=0;shadow=0;endArrow=block;endFill=0;fontColor=none;" edge="1" parent="1" target="Dyl_JNQM9-ZqR2bKSNgT-4">
          <mxGeometry relative="1" as="geometry">
            <mxPoint x="240" y="420" as="sourcePoint" />
          </mxGeometry>
        </mxCell>
        <mxCell id="Dyl_JNQM9-ZqR2bKSNgT-33" style="edgeStyle=none;rounded=1;orthogonalLoop=1;jettySize=auto;html=1;entryX=0;entryY=0.5;entryDx=0;entryDy=0;shadow=0;endArrow=block;endFill=0;fontColor=none;" edge="1" parent="1" target="Dyl_JNQM9-ZqR2bKSNgT-19">
          <mxGeometry relative="1" as="geometry">
            <mxPoint x="240" y="390" as="sourcePoint" />
          </mxGeometry>
        </mxCell>
        <mxCell id="Dyl_JNQM9-ZqR2bKSNgT-1" value="Admin" style="shape=umlActor;verticalLabelPosition=bottom;verticalAlign=top;html=1;labelBackgroundColor=none;fontColor=none;" vertex="1" parent="1">
          <mxGeometry x="200" y="370" width="30" height="60" as="geometry" />
        </mxCell>
        <mxCell id="Dyl_JNQM9-ZqR2bKSNgT-4" value="Modifier le theming" style="ellipse;whiteSpace=wrap;html=1;labelBackgroundColor=none;fontColor=none;" vertex="1" parent="1">
          <mxGeometry x="340" y="430" width="140" height="70" as="geometry" />
        </mxCell>
        <mxCell id="Dyl_JNQM9-ZqR2bKSNgT-11" value="Package - App Settings" style="text;html=1;strokeColor=none;fillColor=none;align=center;verticalAlign=middle;whiteSpace=wrap;rounded=0;labelBackgroundColor=none;fontColor=none;" vertex="1" parent="1">
          <mxGeometry x="360" y="230" width="140" height="20" as="geometry" />
        </mxCell>
        <mxCell id="Dyl_JNQM9-ZqR2bKSNgT-19" value="Modifier les parametres" style="ellipse;whiteSpace=wrap;html=1;labelBackgroundColor=none;fontColor=none;" vertex="1" parent="1">
          <mxGeometry x="340" y="300" width="140" height="70" as="geometry" />
        </mxCell>
      </root>
    </mxGraphModel>
  </diagram>
</mxfile>
